# xmcd
#
# Track frame offsets:
#	187
#	24037
#	34030
#	50342
#	61770
#	88277
#	117182
#	139225
#	147520
#	169275
#
# Disc length: 2323 seconds
#
# Revision: 1
# Processed by: cddbd v1.5.2PL0 Copyright (c) Steve Scherf et al.
# Submitted via: EasyCDDAExtractor 12.1.0.1
#
DISCID=8609110a
DTITLE=Jonathan Settel - Messianic Praise - Under His Wings
DYEAR=1994
DGENRE=Chorus
TTITLE0=We are standing on holy groun
TTITLE1=We celebrate Messiah
TTITLE2=In the shadow of His wings
TTITLE3=Call upon the Lord
TTITLE4=Mighty God/Mi Kamocha
TTITLE5=Mystery
TTITLE6=Ezekiel 37:1-14/Arise an have mercy
TTITLE7=Jubilee
TTITLE8=I take refuge in Youe
TTITLE9=Dismiss us from this place
EXTD=
EXTT0=
EXTT1=
EXTT2=
EXTT3=
EXTT4=
EXTT5=
EXTT6=
EXTT7=
EXTT8=
EXTT9=
PLAYORDER=
